# Created by MKDS Course Modifier
mtllib Library Chair.mtl
g polygon0
usemtl phong5
v 0.784668 2.496826 -1.001953
v -0.784668 2.496826 -0.9980469
v 0.677002 2.443604 -0.8613281
v -0.677002 2.443604 -0.8613281
v 0.677002 1 -0.5649414
v -0.677002 1 -0.5649414
v 0.677002 1 0.9328613
v -0.677002 1 0.9328613
vn 0 0.9355469 0.3535156
vn 0 0.9335938 0.3574219
vn 0.2324219 0.6679688 0.7070313
vn -0.2226563 0.4316406 0.8730469
vn 0.5449219 0.4765625 0.6894531
vn -0.5410156 0.6738281 0.5019531
vn 0.6347656 0.7695313 0.07617188
vn -0.765625 0.6367188 0.09179688
vt 0.7578125 -0.8925781
vt 0.7578125 -0.1074219
vt 0.7060547 -0.8925781
vt 0.7060547 -0.1074219
vt 0.3828125 -0.8300781
vt 0.3828125 -0.1074219
vt 0.1269531 -0.8300781
vt 0.1269531 -0.1074219
f 1/1/1 2/2/2 3/3/3
f 2/2/2 4/4/4 3/3/3
f 3/3/3 4/4/4 5/5/5
f 4/4/4 6/6/6 5/5/5
f 5/5/5 6/6/6 7/7/7
f 6/6/6 8/8/8 7/7/7
v 0.6799316 0.8271484 1
v 0.784668 0.8271484 0.6860352
v 0.677002 1 0.9328613
v 0.784668 0.8271484 -0.7102051
v 0.677002 1 -0.5649414
v 0.784668 2.496826 -1.001953
v 0.677002 2.443604 -0.8613281
vn 0.9394531 0.1367188 0.3125
vn 0.9257813 0.34375 0.1621094
vn 0.6347656 0.7695313 0.07617188
vn 0.8964844 0.4042969 0.1835938
vn 0.5449219 0.4765625 0.6894531
vn 0.8085938 0.1113281 0.578125
vn 0.2324219 0.6679688 0.7070313
vt 0.01171875 -0.8925781
vt 0.08007813 -0.9746094
vt 0.1269531 -0.8300781
vt 0.3828125 -0.9746094
vt 0.3828125 -0.8300781
vt 0.7060547 -0.9746094
vt 0.7060547 -0.8925781
f 9/9/9 10/10/10 11/11/11
f 10/10/10 12/12/12 11/11/11
f 11/11/11 12/12/12 13/13/13
f 12/12/12 14/14/14 13/13/13
f 13/13/13 14/14/14 15/15/15
v -0.6799316 0.8271484 1
v 0.6799316 0.8271484 1
v -0.677002 1 0.9328613
v 0.677002 1 0.9328613
vn 0 0.3613281 0.9316406
vn 0 0.3613281 0.9316406
vn 0 0.3613281 0.9316406
vn 0 0.3613281 0.9316406
vt 0.01171875 -0.1074219
vt 0.01171875 -0.8925781
vt 0.1269531 -0.1074219
vt 0.1269531 -0.8300781
f 16/16/16 17/17/17 18/18/18
f 17/17/17 19/19/19 18/18/18
v -0.784668 0.8271484 -0.6733398
v -0.784668 2.496826 -0.9980469
v 0.784668 0.8271484 -0.7102051
v 0.784668 2.496826 -1.001953
vn -0.0234375 -0.1914063 -0.9804688
vn -0.01171875 -0.1816406 -0.9824219
vn -0.01171875 -0.1816406 -0.9824219
vn -0.001953125 -0.171875 -0.984375
vt 0.9853516 -0.1074219
vt 0.7578125 -0.1074219
vt 0.9853516 -0.8925781
vt 0.7578125 -0.8925781
f 20/20/20 21/21/21 22/22/22
f 21/21/21 23/23/23 22/22/22
v -0.6799316 0.8271484 1
v -0.677002 1 0.9328613
v -0.784668 0.8271484 0.6860352
v -0.784668 0.8271484 -0.6733398
vn -0.9394531 0.1367188 0.3125
vn -0.765625 0.6367188 0.09179688
vn -0.9257813 0.34375 0.1621094
vn -0.8847656 0.4160156 0.2128906
vt 0.01171875 -0.1074219
vt 0.1269531 -0.1074219
vt 0.08007813 -0.02539063
vt 0.3828125 -0.02539063
f 24/24/24 25/25/25 26/26/26
f 25/25/25 27/27/27 26/26/26
v -0.784668 0.8271484 -0.6733398
v -0.677002 1 -0.5649414
v -0.784668 2.496826 -0.9980469
v -0.677002 2.443604 -0.8613281
vn -0.8847656 0.4160156 0.2128906
vn -0.5410156 0.6738281 0.5019531
vn -0.7734375 0.125 0.6210938
vn -0.2226563 0.4316406 0.8730469
vt 0.3828125 -0.02539063
vt 0.3828125 -0.1074219
vt 0.7060547 -0.02539063
vt 0.7060547 -0.1074219
f 28/28/28 29/29/29 30/30/30
f 29/29/29 31/31/31 30/30/30
v -0.784668 0.8271484 -0.6733398
v -0.677002 1 0.9328613
v -0.677002 1 -0.5649414
vn -0.8847656 0.4160156 0.2128906
vn -0.765625 0.6367188 0.09179688
vn -0.5410156 0.6738281 0.5019531
vt 0.3828125 -0.02539063
vt 0.1269531 -0.1074219
vt 0.3828125 -0.1074219
f 32/32/32 33/33/33 34/34/34
g polygon1
usemtl phong6
v 0.661377 0.6757813 -0.6052246
v 0.661377 0.829834 -0.6052246
v 1 0.6757813 -0.6052246
v 0.8449707 0.829834 -0.6052246
v 1 1.379883 -0.6052246
v 0.8449707 1.379883 -0.6052246
vn 0 0 -1
vn 0 0 -1
vn 0 0 -1
vn 0 0 -1
vn 0 0 -1
vn 0 0 -1
vt 0.9736328 -0.1738281
vt 0.9736328 -0.0390625
vt 0.8671875 -0.1738281
vt 0.8671875 -0.0390625
vt 0.6611328 -0.1738281
vt 0.6611328 -0.0390625
f 35/35/35 36/36/36 37/37/37
f 36/36/36 38/38/38 37/37/37
f 37/37/37 38/38/38 39/39/39
f 38/38/38 40/40/40 39/39/39
v -1 0.6730957 0.548584
v -1 0.6730957 0.7028809
v -1 1.2229 0.548584
v -1 1.379883 0.7028809
v -1 1.2229 -0.4509277
v -1 1.379883 -0.6052246
vn -1 0 0
vn -1 0 0
vn -1 0 0
vn -1 0 0
vn -1 0 0
vn -1 0 0
vt 0.1367188 -0.3417969
vt 0.1367188 -0.1738281
vt 0.3349609 -0.3417969
vt 0.3349609 -0.1738281
vt 0.6611328 -0.3417969
vt 0.6611328 -0.1738281
f 41/41/41 42/42/42 43/43/43
f 42/42/42 44/44/44 43/43/43
f 43/43/43 44/44/44 45/45/45
f 44/44/44 46/46/46 45/45/45
v -0.8449707 1.379883 0.7028809
v -1 1.379883 0.7028809
v -0.8374023 0.829834 0.7028809
v -1 0.6730957 0.7028809
v -0.661377 0.829834 0.7028809
v -0.661377 0.6730957 0.7028809
vn 0 0 0.9980469
vn 0 0 0.9980469
vn 0 0 0.9980469
vn 0 0 0.9980469
vn 0 0 0.9980469
vn 0 0 0.9980469
vt 0.3349609 -0.0390625
vt 0.3349609 -0.1738281
vt 0.1367188 -0.0390625
vt 0.1367188 -0.1738281
vt 0.03222656 -0.0390625
vt 0.03222656 -0.1738281
f 47/47/47 48/48/48 49/49/49
f 48/48/48 50/50/50 49/49/49
f 49/49/49 50/50/50 51/51/51
f 50/50/50 52/52/52 51/51/51
v 1 0.6757813 -0.4509277
v 1 0.6757813 -0.6052246
v 1 1.2229 -0.4509277
v 1 1.379883 -0.6052246
v 1 1.379883 0.7028809
vn 0.9980469 0 0
vn 0.9980469 0 0
vn 0.9980469 0 0
vn 0.9980469 0 0
vn 0.9980469 0 0
vt 0.8671875 -0.3417969
vt 0.8671875 -0.1738281
vt 0.6611328 -0.3417969
vt 0.6611328 -0.1738281
vt 0.3349609 -0.1738281
f 53/53/53 54/54/54 55/55/55
f 54/54/54 56/56/56 55/55/55
f 55/55/55 56/56/56 57/57/57
v 1 0.6757813 -0.6052246
v 1 0.6757813 -0.4509277
v 0.661377 0.6757813 -0.6052246
v 0.661377 0.6757813 -0.4509277
vn 0 -1 0
vn 0 -1 0
vn 0 -1 0
vn 0 -1 0
vt 0.8671875 -0.1738281
vt 0.8671875 -0.3417969
vt 0.9736328 -0.1738281
vt 0.9736328 -0.3417969
f 58/58/58 59/59/59 60/60/60
f 59/59/59 61/61/61 60/60/60
v 0.8449707 1.379883 -0.6052246
v 0.8449707 1.379883 0.7028809
v 1 1.379883 -0.6052246
v 1 1.379883 0.7028809
vn 0 0.9980469 0
vn 0 0.9980469 0
vn 0 0.9980469 0
vn 0 0.9980469 0
vt 0.6611328 -0.0390625
vt 0.3349609 -0.0390625
vt 0.6611328 -0.1738281
vt 0.3349609 -0.1738281
f 62/62/62 63/63/63 64/64/64
f 63/63/63 65/65/65 64/64/64
v 1 0.6730957 0.548584
v 1 1.2229 0.548584
v 1 0.6730957 0.7028809
v 1 1.379883 0.7028809
vn 0.9980469 0 0
vn 0.9980469 0 0
vn 0.9980469 0 0
vn 0.9980469 0 0
vt 0.1367188 -0.3417969
vt 0.3349609 -0.3417969
vt 0.1367188 -0.1738281
vt 0.3349609 -0.1738281
f 66/66/66 67/67/67 68/68/68
f 67/67/67 69/69/69 68/68/68
v 0.8449707 1.379883 0.7028809
v 0.8374023 0.829834 0.7028809
v 1 1.379883 0.7028809
v 1 0.6730957 0.7028809
vn 0 0 0.9980469
vn 0 0 0.9980469
vn 0 0 0.9980469
vn 0 0 0.9980469
vt 0.3349609 -0.0390625
vt 0.1367188 -0.0390625
vt 0.3349609 -0.1738281
vt 0.1367188 -0.1738281
f 70/70/70 71/71/71 72/72/72
f 71/71/71 73/73/73 72/72/72
v 1 0.6730957 0.7028809
v 0.661377 0.6730957 0.7028809
v 1 0.6730957 0.548584
v 0.661377 0.6730957 0.548584
vn 0 -1 0
vn 0 -1 0
vn 0 -1 0
vn 0 -1 0
vt 0.1367188 -0.1738281
vt 0.03222656 -0.1738281
vt 0.1367188 -0.3417969
vt 0.03222656 -0.3417969
f 74/74/74 75/75/75 76/76/76
f 75/75/75 77/77/77 76/76/76
v 0.661377 0.6730957 0.7028809
v 1 0.6730957 0.7028809
v 0.661377 0.829834 0.7028809
v 0.8374023 0.829834 0.7028809
vn 0 0 0.9980469
vn 0 0 0.9980469
vn 0 0 0.9980469
vn 0 0 0.9980469
vt 0.03222656 -0.1738281
vt 0.1367188 -0.1738281
vt 0.03222656 -0.0390625
vt 0.1367188 -0.0390625
f 78/78/78 79/79/79 80/80/80
f 79/79/79 81/81/81 80/80/80
v -0.661377 0.6757813 -0.6052246
v -1 0.6757813 -0.6052246
v -0.661377 0.829834 -0.6052246
v -0.8449707 0.829834 -0.6052246
vn 0 0 -1
vn 0 0 -1
vn 0 0 -1
vn 0 0 -1
vt 0.9736328 -0.1738281
vt 0.8671875 -0.1738281
vt 0.9736328 -0.0390625
vt 0.8671875 -0.0390625
f 82/82/82 83/83/83 84/84/84
f 83/83/83 85/85/85 84/84/84
v -1 0.6757813 -0.6052246
v -0.661377 0.6757813 -0.6052246
v -1 0.6757813 -0.4509277
v -0.661377 0.6757813 -0.4509277
vn 0 -1 0
vn 0 -1 0
vn 0 -1 0
vn 0 -1 0
vt 0.8671875 -0.1738281
vt 0.9736328 -0.1738281
vt 0.8671875 -0.3417969
vt 0.9736328 -0.3417969
f 86/86/86 87/87/87 88/88/88
f 87/87/87 89/89/89 88/88/88
v -1 0.6757813 -0.4509277
v -1 1.2229 -0.4509277
v -1 0.6757813 -0.6052246
v -1 1.379883 -0.6052246
vn -1 0 0
vn -1 0 0
vn -1 0 0
vn -1 0 0
vt 0.8671875 -0.3417969
vt 0.6611328 -0.3417969
vt 0.8671875 -0.1738281
vt 0.6611328 -0.1738281
f 90/90/90 91/91/91 92/92/92
f 91/91/91 93/93/93 92/92/92
v -0.8449707 1.379883 -0.6052246
v -0.8449707 0.829834 -0.6052246
v -1 1.379883 -0.6052246
v -1 0.6757813 -0.6052246
vn 0 0 -1
vn 0 0 -1
vn 0 0 -1
vn 0 0 -1
vt 0.6611328 -0.0390625
vt 0.8671875 -0.0390625
vt 0.6611328 -0.1738281
vt 0.8671875 -0.1738281
f 94/94/94 95/95/95 96/96/96
f 95/95/95 97/97/97 96/96/96
v -0.8449707 1.379883 -0.6052246
v -1 1.379883 -0.6052246
v -0.8449707 1.379883 0.7028809
v -1 1.379883 0.7028809
vn 0 0.9980469 0
vn 0 0.9980469 0
vn 0 0.9980469 0
vn 0 0.9980469 0
vt 0.6611328 -0.0390625
vt 0.6611328 -0.1738281
vt 0.3349609 -0.0390625
vt 0.3349609 -0.1738281
f 98/98/98 99/99/99 100/100/100
f 99/99/99 101/101/101 100/100/100
v -1 0.6730957 0.7028809
v -1 0.6730957 0.548584
v -0.661377 0.6730957 0.7028809
v -0.661377 0.6730957 0.548584
vn 0 -1 0
vn 0 -1 0
vn 0 -1 0
vn 0 -1 0
vt 0.1367188 -0.1738281
vt 0.1367188 -0.3417969
vt 0.03222656 -0.1738281
vt 0.03222656 -0.3417969
f 102/102/102 103/103/103 104/104/104
f 103/103/103 105/105/105 104/104/104
v -0.1135254 0.2824707 -0.02075195
v -0.5966797 0.08691406 0.4626465
v -0.05517578 0.4465332 0.05517578
v -0.642334 0.1901855 0.642334
vn -0.7070313 0.4882813 -0.5097656
vn -0.859375 0.2871094 -0.421875
vn -0.7070313 0.5058594 -0.4941406
vn -0.8574219 0.3203125 -0.4023438
vt 0.9677734 -0.4570313
vt 0.59375 -0.4570313
vt 0.9677734 -0.6972656
vt 0.59375 -0.6972656
f 106/106/106 107/107/107 108/108/108
f 107/107/107 109/109/109 108/108/108
v -0.5964355 0 0.4621582
v -0.6708984 0 0.6708984
v -0.5966797 0.08691406 0.4626465
v -0.642334 0.1901855 0.642334
vn -0.9414063 -0.001953125 -0.3359375
vn -0.9472656 0.046875 -0.3164063
vn -0.859375 0.2871094 -0.421875
vn -0.8574219 0.3203125 -0.4023438
vt 0.5068359 -0.4570313
vt 0.5068359 -0.6972656
vt 0.59375 -0.4570313
vt 0.59375 -0.6972656
f 110/110/110 111/111/111 112/112/112
f 111/111/111 113/113/113 112/112/112
v -0.4621582 0 0.5964355
v -0.4626465 0.08691406 0.5966797
v -0.6708984 0 0.6708984
v -0.642334 0.1901855 0.642334
vn 0.3359375 -0.001953125 0.9414063
vn 0.421875 0.2871094 0.859375
vn 0.3164063 0.046875 0.9472656
vn 0.4023438 0.3203125 0.8574219
vt 0.5068359 -0.9316406
vt 0.59375 -0.9316406
vt 0.5068359 -0.6972656
vt 0.59375 -0.6972656
f 114/114/114 115/115/115 116/116/116
f 115/115/115 117/117/117 116/116/116
v 0.02075195 0.2824707 0.1135254
v -0.05517578 0.4465332 0.05517578
v -0.4626465 0.08691406 0.5966797
v -0.642334 0.1901855 0.642334
vn 0.5097656 0.4882813 0.7070313
vn 0.4941406 0.5058594 0.7070313
vn 0.421875 0.2871094 0.859375
vn 0.4023438 0.3203125 0.8574219
vt 0.9677734 -0.9316406
vt 0.9677734 -0.6972656
vt 0.59375 -0.9316406
vt 0.59375 -0.6972656
f 118/118/118 119/119/119 120/120/120
f 119/119/119 121/121/121 120/120/120
v -0.02075195 0.2824707 0.1135254
v 0.4626465 0.08691406 0.5966797
v 0.05517578 0.4465332 0.05517578
v 0.642334 0.1901855 0.642334
vn -0.5097656 0.4882813 0.7070313
vn -0.421875 0.2871094 0.859375
vn -0.4941406 0.5058594 0.7070313
vn -0.4023438 0.3203125 0.8574219
vt 0.9677734 -0.4570313
vt 0.59375 -0.4570313
vt 0.9677734 -0.6972656
vt 0.59375 -0.6972656
f 122/122/122 123/123/123 124/124/124
f 123/123/123 125/125/125 124/124/124
v 0.4621582 0 0.5964355
v 0.6708984 0 0.6708984
v 0.4626465 0.08691406 0.5966797
v 0.642334 0.1901855 0.642334
vn -0.3359375 -0.001953125 0.9414063
vn -0.3164063 0.046875 0.9472656
vn -0.421875 0.2871094 0.859375
vn -0.4023438 0.3203125 0.8574219
vt 0.5068359 -0.4570313
vt 0.5068359 -0.6972656
vt 0.59375 -0.4570313
vt 0.59375 -0.6972656
f 126/126/126 127/127/127 128/128/128
f 127/127/127 129/129/129 128/128/128
v 0.5964355 0 0.4621582
v 0.5966797 0.08691406 0.4626465
v 0.6708984 0 0.6708984
v 0.642334 0.1901855 0.642334
vn 0.9414063 -0.001953125 -0.3359375
vn 0.859375 0.2871094 -0.421875
vn 0.9472656 0.046875 -0.3164063
vn 0.8574219 0.3203125 -0.4023438
vt 0.5068359 -0.9316406
vt 0.59375 -0.9316406
vt 0.5068359 -0.6972656
vt 0.59375 -0.6972656
f 130/130/130 131/131/131 132/132/132
f 131/131/131 133/133/133 132/132/132
v 0.1135254 0.2824707 -0.02075195
v 0.05517578 0.4465332 0.05517578
v 0.5966797 0.08691406 0.4626465
v 0.642334 0.1901855 0.642334
vn 0.7070313 0.4882813 -0.5097656
vn 0.7070313 0.5058594 -0.4941406
vn 0.859375 0.2871094 -0.421875
vn 0.8574219 0.3203125 -0.4023438
vt 0.9677734 -0.9316406
vt 0.9677734 -0.6972656
vt 0.59375 -0.9316406
vt 0.59375 -0.6972656
f 134/134/134 135/135/135 136/136/136
f 135/135/135 137/137/137 136/136/136
v 0.02075195 0.2824707 -0.1135254
v -0.4626465 0.08691406 -0.5966797
v -0.05517578 0.4465332 -0.05517578
v -0.642334 0.1901855 -0.642334
vn 0.5097656 0.4882813 -0.7070313
vn 0.421875 0.2871094 -0.859375
vn 0.4941406 0.5058594 -0.7070313
vn 0.4023438 0.3203125 -0.8574219
vt 0.9677734 -0.4570313
vt 0.59375 -0.4570313
vt 0.9677734 -0.6972656
vt 0.59375 -0.6972656
f 138/138/138 139/139/139 140/140/140
f 139/139/139 141/141/141 140/140/140
v -0.4621582 0 -0.5964355
v -0.6708984 0 -0.6708984
v -0.4626465 0.08691406 -0.5966797
v -0.642334 0.1901855 -0.642334
vn 0.3359375 -0.001953125 -0.9414063
vn 0.3164063 0.046875 -0.9472656
vn 0.421875 0.2871094 -0.859375
vn 0.4023438 0.3203125 -0.8574219
vt 0.5068359 -0.4570313
vt 0.5068359 -0.6972656
vt 0.59375 -0.4570313
vt 0.59375 -0.6972656
f 142/142/142 143/143/143 144/144/144
f 143/143/143 145/145/145 144/144/144
v -0.5964355 0 -0.4621582
v -0.5966797 0.08691406 -0.4626465
v -0.6708984 0 -0.6708984
v -0.642334 0.1901855 -0.642334
vn -0.9414063 -0.001953125 0.3359375
vn -0.859375 0.2871094 0.421875
vn -0.9472656 0.046875 0.3164063
vn -0.8574219 0.3203125 0.4023438
vt 0.5068359 -0.9316406
vt 0.59375 -0.9316406
vt 0.5068359 -0.6972656
vt 0.59375 -0.6972656
f 146/146/146 147/147/147 148/148/148
f 147/147/147 149/149/149 148/148/148
v -0.1135254 0.2824707 0.02075195
v -0.05517578 0.4465332 -0.05517578
v -0.5966797 0.08691406 -0.4626465
v -0.642334 0.1901855 -0.642334
vn -0.7070313 0.4882813 0.5097656
vn -0.7070313 0.5058594 0.4941406
vn -0.859375 0.2871094 0.421875
vn -0.8574219 0.3203125 0.4023438
vt 0.9677734 -0.9316406
vt 0.9677734 -0.6972656
vt 0.59375 -0.9316406
vt 0.59375 -0.6972656
f 150/150/150 151/151/151 152/152/152
f 151/151/151 153/153/153 152/152/152
v -0.07104492 0.2851563 -0.1186523
v -0.07104492 0.2851563 0.1186523
v -0.07104492 0.8271484 -0.1186523
v -0.07104492 0.8271484 0.1186523
vn -1 0 0
vn -1 0 0
vn -1 0 0
vn -1 0 0
vt 0.1806641 -0.9472656
vt 0.3125 -0.9472656
vt 0.1806641 -0.4082031
vt 0.3125 -0.4082031
f 154/154/154 155/155/155 156/156/156
f 155/155/155 157/157/157 156/156/156
v -0.07104492 0.2851563 0.1186523
v 0.1420898 0.2851563 0
v -0.07104492 0.8271484 0.1186523
v 0.1420898 0.8271484 0
vn 0.4863281 0 0.8730469
vn 0.4863281 0 0.8730469
vn 0.4863281 0 0.8730469
vn 0.4863281 0 0.8730469
vt 0.3125 -0.9472656
vt 0.4492188 -0.9472656
vt 0.3125 -0.4082031
vt 0.4492188 -0.4082031
f 158/158/158 159/159/159 160/160/160
f 159/159/159 161/161/161 160/160/160
v 0.1420898 0.2851563 0
v -0.07104492 0.2851563 -0.1186523
v 0.1420898 0.8271484 0
v -0.07104492 0.8271484 -0.1186523
vn 0.4863281 0 -0.8730469
vn 0.4863281 0 -0.8730469
vn 0.4863281 0 -0.8730469
vn 0.4863281 0 -0.8730469
vt 0.04492188 -0.9472656
vt 0.1806641 -0.9472656
vt 0.04492188 -0.4082031
vt 0.1806641 -0.4082031
f 162/162/162 163/163/163 164/164/164
f 163/163/163 165/165/165 164/164/164
v 0.1135254 0.2824707 0.02075195
v 0.5966797 0.08691406 -0.4626465
v 0.05517578 0.4465332 -0.05517578
v 0.642334 0.1901855 -0.642334
vn 0.7070313 0.4882813 0.5097656
vn 0.859375 0.2871094 0.421875
vn 0.7070313 0.5058594 0.4941406
vn 0.8574219 0.3203125 0.4023438
vt 0.9677734 -0.4570313
vt 0.59375 -0.4570313
vt 0.9677734 -0.6972656
vt 0.59375 -0.6972656
f 166/166/166 167/167/167 168/168/168
f 167/167/167 169/169/169 168/168/168
v 0.5964355 0 -0.4621582
v 0.6708984 0 -0.6708984
v 0.5966797 0.08691406 -0.4626465
v 0.642334 0.1901855 -0.642334
vn 0.9414063 -0.001953125 0.3359375
vn 0.9472656 0.046875 0.3164063
vn 0.859375 0.2871094 0.421875
vn 0.8574219 0.3203125 0.4023438
vt 0.5068359 -0.4570313
vt 0.5068359 -0.6972656
vt 0.59375 -0.4570313
vt 0.59375 -0.6972656
f 170/170/170 171/171/171 172/172/172
f 171/171/171 173/173/173 172/172/172
v 0.4621582 0 -0.5964355
v 0.4626465 0.08691406 -0.5966797
v 0.6708984 0 -0.6708984
v 0.642334 0.1901855 -0.642334
vn -0.3359375 -0.001953125 -0.9414063
vn -0.421875 0.2871094 -0.859375
vn -0.3164063 0.046875 -0.9472656
vn -0.4023438 0.3203125 -0.8574219
vt 0.5068359 -0.9316406
vt 0.59375 -0.9316406
vt 0.5068359 -0.6972656
vt 0.59375 -0.6972656
f 174/174/174 175/175/175 176/176/176
f 175/175/175 177/177/177 176/176/176
v -0.02075195 0.2824707 -0.1135254
v 0.05517578 0.4465332 -0.05517578
v 0.4626465 0.08691406 -0.5966797
v 0.642334 0.1901855 -0.642334
vn -0.5097656 0.4882813 -0.7070313
vn -0.4941406 0.5058594 -0.7070313
vn -0.421875 0.2871094 -0.859375
vn -0.4023438 0.3203125 -0.8574219
vt 0.9677734 -0.9316406
vt 0.9677734 -0.6972656
vt 0.59375 -0.9316406
vt 0.59375 -0.6972656
f 178/178/178 179/179/179 180/180/180
f 179/179/179 181/181/181 180/180/180
v 1 1.379883 0.7028809
v 1 1.2229 0.548584
v 1 1.2229 -0.4509277
vn 0.9980469 0 0
vn 0.9980469 0 0
vn 0.9980469 0 0
vt 0.3349609 -0.1738281
vt 0.3349609 -0.3417969
vt 0.6611328 -0.3417969
f 182/182/182 183/183/183 184/184/184
