# Blender v2.79 (sub 0) OBJ File: ''
# www.blender.org
mtllib NADER.mtl
o Box001
v -1.901600 -0.001000 1.258900
v -0.024200 -0.001000 1.258900
v -0.024200 0.217300 1.258900
v -1.901600 0.217300 1.258900
v -1.901600 0.217300 -1.258800
v -0.024200 0.217300 -1.258800
v -0.024200 -0.001000 -1.258800
v -1.901600 -0.001000 -1.258800
v -0.271700 0.217300 0.927000
v -1.654200 0.217300 0.927000
v -0.271700 0.217300 -0.927000
v -1.654200 0.217300 -0.927000
v -1.654200 0.371600 0.927000
v -0.271700 0.371600 0.927000
v -0.271700 0.371600 -0.927000
v -1.654200 0.371600 -0.927000
v -1.908300 0.371600 1.267800
v -0.017500 0.371600 1.267800
v -1.908300 0.371600 -1.267800
v -0.017500 0.371600 -1.267800
v -0.017500 0.562100 1.267800
v -1.908300 0.562100 1.267800
v -1.908300 0.562100 -1.267800
v -0.017500 0.562100 -1.267800
v -0.276500 0.562100 0.920500
v -1.649300 0.562100 0.920500
v -1.649300 0.562100 -0.920500
v -0.276500 0.562100 -0.920500
v -0.276500 1.078000 0.920500
v -1.649300 1.078000 0.920500
v -1.649300 1.078000 -0.920500
v -0.276500 1.078000 -0.920500
v -0.096500 1.191900 0.920500
v -2.210100 1.253600 0.920500
v -2.210100 1.253600 -0.920500
v -0.096500 1.191900 -0.920500
v -0.055300 1.507700 0.920500
v -2.112400 1.764900 0.920500
v -2.112400 1.764900 -0.920500
v -0.055300 1.507700 -0.920500
v -1.251800 1.808000 0.920500
v -0.656900 1.808000 0.920500
v -1.251800 1.808000 -0.920500
v -0.656900 1.808000 -0.920500
v -0.656900 2.581100 0.920500
v -1.251800 2.581100 0.920500
v -1.251800 2.581100 -0.920500
v -0.656900 2.581100 -0.920500
v -1.529600 2.854600 0.920500
v -0.188600 3.122100 0.920501
v -1.529600 2.854600 -0.920500
v -0.188600 3.122100 -0.920499
v -0.656900 4.268900 0.920501
v -1.958900 3.770700 0.920401
v -1.958900 3.770700 -0.920599
v -0.656900 4.268900 -0.920499
v -0.656900 4.881100 0.920501
v -1.251800 4.881100 0.920501
v -1.251800 4.881100 -0.920499
v -0.656900 4.881100 -0.920499
v -0.761300 4.483900 0.435701
v -0.761300 4.483900 -0.435699
v -0.761300 4.881600 0.435701
v -0.761300 4.881600 -0.435699
v -0.261800 4.483900 0.435701
v -0.261800 4.483900 -0.435699
v -0.261800 4.881600 0.435701
v -0.261800 4.881600 -0.435699
v 0.644900 4.483900 -0.435699
v 0.644900 4.483900 0.435701
v 0.644900 4.881600 0.435701
v 0.644900 4.881600 -0.435699
v 0.830700 4.482000 -0.785599
v 0.830700 4.482000 0.785601
v 1.008300 5.112900 0.785601
v 1.008300 5.112900 -0.785599
v 0.990900 3.817300 -0.785599
v 0.990900 3.817300 0.785601
v 1.227400 5.112900 0.785601
v 1.227400 5.112900 -0.785599
v 1.680300 3.995400 0.785601
v 1.680300 3.995400 -0.785599
v 1.170100 3.863600 -0.376999
v 1.170100 3.863600 0.377001
v 1.501000 3.949100 0.377001
v 1.501000 3.949100 -0.376999
v 1.402500 2.953200 -0.377000
v 1.402500 2.953200 0.377000
v 1.733400 2.954600 0.377000
v 1.733400 2.954600 -0.377000
v 1.137800 2.953900 -0.563500
v 1.137800 2.953900 0.607300
v 2.000700 2.955700 0.607300
v 2.000700 2.955700 -0.563500
v 1.137800 2.719800 0.607300
v 2.000700 2.721600 0.607300
v 2.000700 2.721600 -0.563500
v 1.137800 2.719800 -0.563500
v 2.084100 2.920900 0.323800
v 2.084100 2.920900 -0.280100
v 2.084100 2.740900 0.323800
v 2.084100 2.740900 -0.280100
v 2.210100 2.920900 0.323800
v 2.210100 2.920900 -0.280100
v 2.210100 2.740900 0.323800
v 2.210100 2.740900 -0.280100
v 2.084100 2.545500 0.323800
v 2.147100 2.545500 -0.280100
v 2.210100 2.545500 0.323800
v 2.084100 2.414700 0.323800
v 2.210100 2.414700 0.323800
v 2.210100 2.414700 -0.280100
v 2.084100 2.414700 -0.280100
v 1.956000 2.545500 -0.280100
v 1.956000 2.545500 0.323800
v 1.956000 2.414700 0.323800
v 1.956000 2.414700 -0.280100
v 1.056900 2.920900 -0.280100
v 1.056900 2.920900 0.323800
v 1.056900 2.740900 -0.280100
v 1.056900 2.740900 0.323800
v 0.930900 2.920900 -0.280100
v 0.930900 2.920900 0.323800
v 0.930900 2.740900 -0.280100
v 0.930900 2.740900 0.323800
v 1.056900 2.545500 0.323800
v 1.056900 2.545500 -0.280100
v 0.930900 2.545500 -0.280100
v 0.930900 2.545500 0.323800
v 1.056900 2.414700 -0.280100
v 0.930900 2.414700 -0.280100
v 1.056900 2.414700 0.323800
v 0.930900 2.414700 0.323800
v 1.185100 2.545500 -0.280100
v 1.185100 2.545500 0.323800
v 1.185100 2.414700 -0.280100
v 1.185100 2.414700 0.323800
vt 0.359300 0.025900
vt 0.359300 0.231800
vt 0.335400 0.231800
vt 0.335400 0.025900
vt 0.792100 0.974700
vt 0.998000 0.974700
vt 0.998000 0.998700
vt 0.792100 0.998700
vt 0.647100 0.231800
vt 0.370900 0.231800
vt 0.370900 0.025900
vt 0.647100 0.025900
vt 0.997200 0.898600
vt 0.997200 0.922600
vt 0.721000 0.922600
vt 0.721000 0.898600
vt 0.997200 0.897200
vt 0.721000 0.897200
vt 0.721000 0.873200
vt 0.997200 0.873200
vt 0.721000 0.665200
vt 0.757400 0.692400
vt 0.757400 0.844000
vt 0.721000 0.871200
vt 0.960800 0.692400
vt 0.997200 0.665200
vt 0.997200 0.871200
vt 0.960800 0.844000
vt 0.762800 0.479900
vt 0.762800 0.462900
vt 0.914500 0.462900
vt 0.914500 0.479900
vt 0.805700 0.337900
vt 0.805700 0.321000
vt 0.957400 0.321000
vt 0.957400 0.337900
vt 0.690600 0.853400
vt 0.690600 0.650000
vt 0.707500 0.650000
vt 0.707500 0.853400
vt 0.707500 0.645400
vt 0.690600 0.645400
vt 0.690600 0.441900
vt 0.707500 0.441900
vt 0.999200 0.634200
vt 0.961800 0.606300
vt 0.961800 0.454600
vt 0.999200 0.426700
vt 0.721000 0.634200
vt 0.721000 0.426700
vt 0.758400 0.454600
vt 0.758400 0.606300
vt 0.792100 0.949400
vt 0.999500 0.949400
vt 0.999500 0.970300
vt 0.792100 0.970300
vt 0.792100 0.924000
vt 0.999500 0.924000
vt 0.999500 0.944900
vt 0.792100 0.944900
vt 0.721000 0.660700
vt 0.721000 0.639800
vt 0.999200 0.639800
vt 0.999200 0.660700
vt 0.476600 0.021400
vt 0.198400 0.021400
vt 0.198400 0.000500
vt 0.476600 0.000500
vt 0.721000 0.213600
vt 0.759100 0.242000
vt 0.759100 0.392600
vt 0.721000 0.421100
vt 0.961100 0.392600
vt 0.961100 0.242000
vt 0.999200 0.213600
vt 0.999200 0.421100
vt 0.180500 0.997000
vt 0.029800 0.997000
vt 0.029800 0.940400
vt 0.180500 0.940400
vt 0.024800 0.005600
vt 0.175400 0.005600
vt 0.175400 0.062200
vt 0.024800 0.062200
vt 0.573900 0.650000
vt 0.630500 0.650000
vt 0.630500 0.852000
vt 0.573900 0.852000
vt 0.554400 0.391200
vt 0.554400 0.593200
vt 0.497800 0.593200
vt 0.497800 0.391200
vt 0.010100 0.927900
vt 0.242000 0.921100
vt 0.236900 0.081400
vt 0.005000 0.074700
vt 0.344600 0.796600
vt 0.142600 0.796600
vt 0.142600 0.776800
vt 0.344600 0.776800
vt 0.360800 0.233900
vt 0.422300 0.233900
vt 0.422300 0.435900
vt 0.360800 0.435900
vt 0.005600 0.893200
vt 0.231300 0.865000
vt 0.226200 0.137500
vt 0.000500 0.109300
vt 0.644900 0.650000
vt 0.679600 0.650000
vt 0.679600 0.852000
vt 0.644900 0.852000
vt 0.264400 0.025900
vt 0.320500 0.025900
vt 0.320500 0.227900
vt 0.264400 0.227900
vt 0.136800 0.860300
vt 0.071600 0.860300
vt 0.131800 0.142300
vt 0.066500 0.142300
vt 0.486600 0.441900
vt 0.486600 0.507900
vt 0.284700 0.507900
vt 0.284700 0.441900
vt 0.486600 0.607400
vt 0.284700 0.607400
vt 0.284700 0.513000
vt 0.486600 0.513000
vt 0.071600 0.775500
vt 0.136800 0.775500
vt 0.131800 0.227100
vt 0.066500 0.227100
vt 0.997400 0.207600
vt 0.912500 0.207600
vt 0.912500 0.005600
vt 0.997400 0.005600
vt 0.264400 0.435900
vt 0.264400 0.233900
vt 0.349200 0.233900
vt 0.349200 0.435900
vt 0.167300 0.745500
vt 0.020200 0.716100
vt 0.162200 0.257100
vt 0.015100 0.286400
vt 0.853200 0.005600
vt 0.853200 0.207600
vt 0.142600 0.837800
vt 0.142600 0.807300
vt 0.344600 0.807300
vt 0.344600 0.837800
vt 0.071600 0.590300
vt 0.214400 0.645000
vt 0.209300 0.357600
vt 0.066500 0.412300
vt 0.727400 0.207600
vt 0.727400 0.005600
vt 0.568800 0.441900
vt 0.679800 0.442000
vt 0.679800 0.643900
vt 0.568800 0.643900
vt 0.071600 0.523100
vt 0.136800 0.523100
vt 0.131800 0.479400
vt 0.066500 0.479400
vt 0.244100 0.853000
vt 0.446000 0.853000
vt 0.446000 0.997400
vt 0.244100 0.997400
vt 0.703800 0.058800
vt 0.703800 0.154400
vt 0.660100 0.058800
vt 0.660200 0.005600
vt 0.660200 0.207600
vt 0.660100 0.154400
vt 0.708900 0.435900
vt 0.643600 0.435900
vt 0.655100 0.382700
vt 0.643600 0.233900
vt 0.708900 0.233900
vt 0.655100 0.287100
vt 0.435900 0.768800
vt 0.381100 0.768800
vt 0.381100 0.673200
vt 0.435900 0.673200
vt 0.900900 0.721600
vt 0.955700 0.721600
vt 0.955700 0.765200
vt 0.900900 0.765200
vt 0.360200 0.609300
vt 0.414700 0.615000
vt 0.410200 0.658400
vt 0.355700 0.652700
vt 0.600300 0.382700
vt 0.600300 0.287100
vt 0.535300 0.673200
vt 0.535300 0.768800
vt 0.801500 0.765200
vt 0.801500 0.721600
vt 0.513700 0.625400
vt 0.509100 0.668800
vt 0.500800 0.382700
vt 0.500800 0.287100
vt 0.555700 0.634800
vt 0.555700 0.807100
vt 0.761600 0.696200
vt 0.767600 0.338400
vt 0.844900 0.381500
vt 0.773000 0.381500
vt 0.460900 0.421100
vt 0.460900 0.248700
vt 0.955700 0.765700
vt 0.955700 0.838600
vt 0.783400 0.838600
vt 0.783400 0.765700
vt 0.436900 0.421100
vt 0.436900 0.248700
vt 0.935200 0.603000
vt 0.762800 0.603000
vt 0.762800 0.480400
vt 0.935200 0.480400
vt 0.271300 0.688800
vt 0.178100 0.742100
vt 0.227800 0.619500
vt 0.251800 0.619500
vt 0.253700 0.761700
vt 0.176400 0.284400
vt 0.157800 0.153400
vt 0.235300 0.227700
vt 0.199700 0.290200
vt 0.235900 0.152700
vt 0.785000 0.244800
vt 0.957400 0.244800
vt 0.912600 0.264500
vt 0.829900 0.264500
vt 0.829900 0.300800
vt 0.785000 0.320400
vt 0.957400 0.320400
vt 0.912600 0.300800
vt 0.276000 0.602700
vt 0.193300 0.602700
vt 0.193300 0.502800
vt 0.276000 0.502800
vt 0.031100 0.523100
vt 0.067400 0.523300
vt 0.041900 0.632400
vt 0.005600 0.623000
vt 0.854000 0.339000
vt 0.957100 0.338400
vt 0.957400 0.375900
vt 0.845400 0.374200
vt 0.284700 0.660100
vt 0.367400 0.660100
vt 0.367400 0.769200
vt 0.284700 0.769200
vt 0.580500 0.975700
vt 0.452100 0.975700
vt 0.477400 0.946600
vt 0.560100 0.946600
vt 0.452100 0.881000
vt 0.477400 0.910300
vt 0.560100 0.910300
vt 0.580500 0.881000
vt 0.005600 0.425000
vt 0.005800 0.330300
vt 0.031500 0.330300
vt 0.031300 0.425000
vt 0.031500 0.222000
vt 0.005800 0.222000
vt 0.005600 0.127400
vt 0.031300 0.127400
vt 0.712500 0.966600
vt 0.584000 0.966600
vt 0.584000 0.872000
vt 0.712500 0.872000
vt 0.556000 0.604300
vt 0.005600 0.726100
vt 0.041200 0.751100
vt 0.007400 0.814500
vt 0.483200 0.871800
vt 0.549500 0.871800
vt 0.036700 0.255800
vt 0.005600 0.259600
vt 0.005600 0.233900
vt 0.036700 0.236000
vt 0.188200 0.939200
vt 0.213900 0.939200
vt 0.210100 0.970300
vt 0.190400 0.970300
vt 0.615100 0.975800
vt 0.681400 0.975800
vt 0.483200 0.858000
vt 0.549500 0.858000
vt 0.049800 0.376000
vt 0.049800 0.395700
vt 0.036000 0.395700
vt 0.036000 0.376000
vt 0.949500 0.495000
vt 0.949500 0.514800
vt 0.935700 0.514800
vt 0.935700 0.495000
vt 0.761900 0.990300
vt 0.761900 0.924000
vt 0.781600 0.924000
vt 0.781600 0.990300
vt 0.761400 0.765700
vt 0.782900 0.765700
vt 0.782900 0.832000
vt 0.761400 0.832000
vt 0.036000 0.417200
vt 0.049800 0.417200
vt 0.942600 0.536200
vt 0.740400 0.924000
vt 0.740400 0.990300
vt 0.049800 0.431500
vt 0.036000 0.431500
vt 0.936000 0.465500
vt 0.942900 0.479900
vt 0.929100 0.479900
vt 0.726100 0.924000
vt 0.726100 0.990300
vt 0.050100 0.208800
vt 0.050100 0.142600
vt 0.063900 0.142600
vt 0.063900 0.208800
vt 0.942600 0.603000
vt 0.935700 0.536700
vt 0.956700 0.536700
vt 0.956700 0.603000
vt 0.063900 0.417200
vt 0.063900 0.431500
vt 0.915000 0.465500
vt 0.915000 0.479900
vt 0.036000 0.142600
vt 0.036000 0.208800
vt 0.842700 0.280500
vt 0.842700 0.266100
vt 0.909000 0.266100
vt 0.909000 0.280500
vt 0.549500 0.984600
vt 0.483200 0.984600
vt 0.526600 0.913000
vt 0.530300 0.944100
vt 0.504600 0.944100
vt 0.506900 0.913000
vt 0.009200 0.644900
vt 0.028900 0.644900
vt 0.031300 0.677200
vt 0.005600 0.677200
vt 0.615100 0.863100
vt 0.681400 0.863100
vt 0.549500 0.998400
vt 0.483200 0.998400
vt 0.183200 0.025300
vt 0.183200 0.005600
vt 0.197000 0.005600
vt 0.197000 0.025300
vt 0.005600 0.441900
vt 0.025300 0.441900
vt 0.025300 0.455800
vt 0.005600 0.455800
vt 0.355700 0.827300
vt 0.355700 0.807500
vt 0.422000 0.807500
vt 0.422000 0.827300
vt 0.763100 0.311100
vt 0.763100 0.244800
vt 0.784500 0.244800
vt 0.784500 0.311100
vt 0.197000 0.046800
vt 0.183200 0.046800
vt 0.046800 0.441900
vt 0.046800 0.455800
vt 0.355700 0.786100
vt 0.422000 0.786100
vt 0.197000 0.061100
vt 0.183200 0.061100
vt 0.061100 0.455800
vt 0.061100 0.441900
vt 0.355700 0.771800
vt 0.422000 0.771800
vt 0.049800 0.838000
vt 0.036000 0.838000
vt 0.036000 0.771800
vt 0.049800 0.771800
vt 0.909000 0.281000
vt 0.909000 0.295000
vt 0.842700 0.295000
vt 0.842700 0.281000
vt 0.211100 0.046800
vt 0.211100 0.061100
vt 0.046800 0.469800
vt 0.061100 0.469800
vt 0.063900 0.771800
vt 0.063900 0.838000
vn 0.0000 0.0000 1.0000
vn 0.0000 0.0000 -1.0000
vn 0.0000 -1.0000 -0.0000
vn 1.0000 0.0000 0.0000
vn -1.0000 0.0000 0.0000
vn 0.0000 1.0000 0.0000
vn 0.5347 -0.8450 -0.0000
vn -0.2988 -0.9543 -0.0000
vn 0.9916 -0.1294 -0.0000
vn -0.9822 0.1877 0.0000
vn 0.4466 0.8947 0.0000
vn -0.0500 0.9987 0.0000
vn 0.7561 -0.6545 -0.0000
vn -0.7016 -0.7126 -0.0000
vn 0.9258 0.3780 0.0000
vn -0.9055 -0.4243 -0.0000
vn -0.8435 0.5371 0.0000
vn 0.8996 0.4368 0.0000
vn 0.9776 0.0000 -0.2105
vn 0.9776 -0.0000 0.2105
vn 0.0000 1.0000 0.0010
vn 0.0000 1.0000 -0.0010
vn -0.0010 1.0000 0.0000
vn -0.0102 -0.9999 0.0000
vn -0.6936 0.0000 0.7204
vn -0.8566 0.2411 -0.4562
vn -0.5370 0.8436 0.0000
vn -0.9722 -0.2343 -0.0000
vn 0.9268 0.3756 0.0000
vn 0.2502 -0.9682 -0.0000
vn 0.2501 -0.9682 -0.0000
vn 0.2500 -0.9682 0.0000
vn -0.9697 -0.2445 0.0002
vn -0.9695 -0.2451 -0.0003
vn -0.9689 -0.2473 0.0000
vn 0.0023 0.0004 1.0000
vn -0.0013 0.0019 1.0000
vn 0.0030 0.0003 -1.0000
vn -0.0013 0.0025 -1.0000
vn 0.9736 0.2284 -0.0021
vn 0.9736 0.2284 0.0027
vn 0.9738 0.2276 0.0000
vn 0.0026 1.0000 0.0000
vn 0.0022 1.0000 -0.0023
vn 0.0024 1.0000 0.0030
vn -0.0041 1.0000 -0.0020
vn -0.0027 1.0000 -0.0039
vn -0.0045 1.0000 -0.0025
vn -0.0051 1.0000 0.0035
vn -0.0027 1.0000 0.0048
vn -0.0049 1.0000 0.0028
vn -0.0018 1.0000 0.0003
vn -0.0041 1.0000 0.0000
vn -0.0014 1.0000 -0.0005
vn 0.0021 -1.0000 0.0000
vn -0.6936 0.0000 -0.7204
vn -0.8566 0.2411 0.4562
vn 0.3851 0.9229 0.0000
vn 0.9593 0.0000 0.2822
vn 0.9574 0.0533 0.2839
vn 0.9593 0.0000 -0.2823
vn 0.9489 0.0378 -0.3132
vn 0.2067 -0.9771 0.0499
vn 0.2255 -0.9743 0.0000
vn 0.1766 -0.9843 -0.0020
vn 0.0533 0.0020 0.9986
vn -0.0019 0.0463 0.9989
vn -0.0172 0.0407 -0.9990
vn 0.0387 0.0315 -0.9988
vn 0.9989 0.0019 -0.0463
vn 0.9990 0.0172 0.0407
vn -0.9923 -0.1116 -0.0535
vn -0.9819 -0.1602 -0.1011
vn -0.9813 -0.1923 -0.0103
vn -0.9930 -0.1176 -0.0101
vn -0.0308 0.0190 0.9993
vn -0.0463 -0.0019 0.9989
vn 0.0020 -0.0533 0.9986
vn 0.0447 0.0017 0.9990
vn 0.0378 -0.0326 -0.9988
vn -0.0419 -0.0139 -0.9990
vn 0.0001 0.0629 -0.9980
vn 0.9930 -0.1179 -0.0099
vn 0.9789 -0.2018 -0.0333
vn 0.9781 -0.2014 -0.0528
vn 0.9894 -0.1264 -0.0720
vn -0.0190 -0.0308 0.9993
vn 0.0017 -0.0447 0.9990
vn -0.0508 0.0531 0.9973
vn -0.0001 -0.0629 -0.9980
vn -0.0620 0.0248 -0.9978
vn 0.9555 0.2945 -0.0142
vn 0.9810 0.1939 -0.0102
vn 0.9732 0.2137 -0.0846
vn 0.9556 0.2779 -0.0985
vn -0.0339 -0.9978 0.0575
vn -0.0531 -0.9973 -0.0508
vn 0.0029 0.9990 -0.0447
vn -0.0466 0.9980 0.0422
vn -0.0447 -0.0017 0.9990
vn -0.0533 -0.0334 -0.9980
vn -0.3777 0.9259 0.0000
vn -0.9616 0.0000 -0.2745
vn -0.9616 0.0000 0.2744
vn -0.2524 -0.9676 0.0000
usemtl 01___Default
s off
f 1/1/1 2/2/1 3/3/1 4/4/1
f 5/5/2 6/6/2 7/7/2 8/8/2
f 1/9/3 8/10/3 7/11/3 2/12/3
f 7/13/4 6/14/4 3/15/4 2/16/4
f 8/17/5 1/18/5 4/19/5 5/20/5
f 3/21/6 9/22/6 10/23/6 4/24/6
f 11/25/6 6/26/6 5/27/6 12/28/6
f 6/26/6 11/25/6 9/22/6 3/21/6
f 4/24/6 10/23/6 12/28/6 5/27/6
f 13/29/1 10/30/1 9/31/1 14/32/1
f 15/33/2 11/34/2 12/35/2 16/36/2
f 15/37/4 14/38/4 9/39/4 11/40/4
f 16/41/5 12/42/5 10/43/5 13/44/5
f 17/45/3 13/46/3 14/47/3 18/48/3
f 19/49/3 20/50/3 15/51/3 16/52/3
f 14/47/3 15/51/3 20/50/3 18/48/3
f 13/46/3 17/45/3 19/49/3 16/52/3
f 17/53/1 18/54/1 21/55/1 22/56/1
f 23/57/2 24/58/2 20/59/2 19/60/2
f 21/61/4 18/62/4 20/63/4 24/64/4
f 19/65/5 17/66/5 22/67/5 23/68/5
f 21/69/6 25/70/6 26/71/6 22/72/6
f 27/73/6 28/74/6 24/75/6 23/76/6
f 24/75/6 28/74/6 25/70/6 21/69/6
f 26/71/6 27/73/6 23/76/6 22/72/6
f 26/77/1 25/78/1 29/79/1 30/80/1
f 28/81/2 27/82/2 31/83/2 32/84/2
f 28/85/4 32/86/4 29/87/4 25/88/4
f 27/89/5 26/90/5 30/91/5 31/92/5
f 30/80/1 29/79/1 33/93/1 34/94/1
f 31/83/2 35/95/2 36/96/2 32/84/2
f 29/97/7 32/98/7 36/99/7 33/100/7
f 35/101/8 31/102/8 30/103/8 34/104/8
f 33/93/1 37/105/1 38/106/1 34/94/1
f 36/96/2 35/95/2 39/107/2 40/108/2
f 36/109/9 40/110/9 37/111/9 33/112/9
f 39/113/10 35/114/10 34/115/10 38/116/10
f 41/117/1 38/106/1 37/105/1 42/118/1
f 40/108/2 39/107/2 43/119/2 44/120/2
f 42/121/11 37/122/11 40/123/11 44/124/11
f 41/125/12 43/126/12 39/127/12 38/128/12
f 41/117/1 42/118/1 45/129/1 46/130/1
f 44/120/2 43/119/2 47/131/2 48/132/2
f 44/133/4 48/134/4 45/135/4 42/136/4
f 46/137/5 47/138/5 43/139/5 41/140/5
f 49/141/1 46/130/1 45/129/1 50/142/1
f 51/143/2 52/144/2 48/132/2 47/131/2
f 50/145/13 45/135/13 48/134/13 52/146/13
f 46/147/14 49/148/14 51/149/14 47/150/14
f 53/151/1 54/152/1 49/141/1 50/142/1
f 51/143/2 55/153/2 56/154/2 52/144/2
f 50/145/15 52/146/15 56/155/15 53/156/15
f 55/157/16 51/158/16 49/159/16 54/160/16
f 53/151/1 57/161/1 58/162/1 54/152/1
f 56/154/2 55/153/2 59/163/2 60/164/2
f 58/165/17 59/166/17 55/167/17 54/168/17
f 61/169/18 53/156/18 56/155/18 62/170/18
f 61/169/19 63/171/19 57/172/19 53/156/19
f 60/173/20 64/174/20 62/170/20 56/155/20
f 58/175/21 57/176/21 63/177/21
f 60/178/22 59/179/22 64/180/22
f 63/177/23 64/180/23 59/179/23 58/175/23
f 65/181/3 61/182/3 62/183/3 66/184/3
f 67/185/1 63/186/1 61/187/1 65/188/1
f 64/189/2 68/190/2 66/191/2 62/192/2
f 64/180/6 63/177/6 67/193/6 68/194/6
f 69/195/3 70/196/3 65/181/3 66/184/3
f 70/197/1 71/198/1 67/185/1 65/188/1
f 72/199/2 69/200/2 66/191/2 68/190/2
f 71/201/6 72/202/6 68/194/6 67/193/6
f 69/195/24 73/203/24 74/204/24 70/196/24
f 71/198/25 70/197/25 75/205/25
f 69/206/26 76/207/26 73/208/26
f 71/201/27 75/209/27 76/210/27 72/202/27
f 73/211/28 77/212/28 78/213/28 74/214/28
f 75/209/6 79/215/6 80/216/6 76/210/6
f 81/217/29 82/218/29 80/219/29 79/220/29
f 74/221/1 81/222/1 79/223/1 75/224/1
f 74/221/1 78/225/1 81/222/1
f 80/226/2 82/227/2 73/228/2 76/229/2
f 82/227/2 77/230/2 73/228/2
f 78/231/30 77/232/30 83/233/30 84/234/30
f 78/231/31 84/234/31 85/235/31 81/236/31
f 83/233/31 77/232/31 82/237/31 86/238/31
f 82/237/32 81/236/32 85/235/32 86/238/32
f 87/239/33 88/240/34 84/241/35 83/242/35
f 88/243/36 89/244/37 85/245/1 84/246/1
f 87/247/38 83/248/2 86/249/2 90/250/39
f 89/251/40 90/252/41 86/253/42 85/254/42
f 91/255/43 92/256/43 88/257/44 87/258/45
f 88/257/46 92/256/47 93/259/47 89/260/48
f 90/261/49 94/262/50 91/255/50 87/258/51
f 89/260/52 93/259/53 94/262/53 90/261/54
f 93/263/1 92/264/1 95/265/1 96/266/1
f 94/267/2 97/268/2 98/269/2 91/270/2
f 97/271/55 96/272/55 95/273/55 98/274/55
f 69/200/56 72/199/56 76/275/56
f 70/276/57 74/277/57 75/278/57
f 93/259/58 99/279/58 100/280/58 94/262/58
f 99/281/59 93/282/59 96/283/59 101/284/60
f 97/285/61 94/286/61 100/287/61 102/288/62
f 101/289/63 96/272/64 97/271/64 102/290/65
f 99/279/6 103/291/6 104/292/6 100/280/6
f 99/293/1 101/294/66 105/295/67 103/296/1
f 104/297/2 106/298/68 102/299/69 100/300/2
f 105/301/70 106/302/71 104/303/4 103/304/4
f 107/305/72 101/306/73 102/307/74 108/308/75
f 109/309/76 105/295/77 101/294/78 107/310/79
f 102/299/80 106/298/81 108/311/82
f 108/312/83 106/302/84 105/301/85 109/313/86
f 109/309/87 107/310/88 110/314/1 111/315/89
f 108/316/90 112/317/91 113/318/2
f 112/319/92 108/312/93 109/313/94 111/320/95
f 110/321/3 113/322/3 112/323/96 111/324/97
f 107/325/98 108/326/99 114/327/6 115/328/6
f 115/329/1 116/330/1 110/314/1 107/310/100
f 114/331/2 108/316/101 113/318/2 117/332/2
f 117/333/3 113/322/3 110/321/3 116/334/3
f 116/335/5 115/336/5 114/337/5 117/338/5
f 92/256/102 91/255/102 118/339/102 119/340/102
f 118/341/103 91/342/103 98/343/103 120/344/103
f 119/345/104 121/346/104 95/347/104 92/348/104
f 95/273/105 121/349/105 120/350/105 98/274/105
f 118/339/6 122/351/6 123/352/6 119/340/6
f 124/353/2 122/354/2 118/355/2 120/356/2
f 123/357/1 125/358/1 121/359/1 119/360/1
f 122/361/5 124/362/5 125/363/5 123/364/5
f 120/365/4 121/366/4 126/367/4 127/368/4
f 120/356/2 127/369/2 128/370/2 124/353/2
f 129/371/1 126/372/1 121/359/1 125/358/1
f 128/373/5 129/374/5 125/363/5 124/362/5
f 127/369/2 130/375/2 131/376/2 128/370/2
f 132/377/1 126/372/1 129/371/1 133/378/1
f 131/379/5 133/380/5 129/374/5 128/373/5
f 132/381/3 133/382/3 131/383/3 130/384/3
f 134/385/6 127/386/6 126/387/6 135/388/6
f 130/375/2 127/369/2 134/389/2 136/390/2
f 135/391/1 126/372/1 132/377/1 137/392/1
f 132/381/3 130/384/3 136/393/3 137/394/3
